<?xml version="1.0" encoding="utf-8"?>
<!-- Generator: Adobe Illustrator 22.1.0, SVG Export Plug-In . SVG Version: 6.00 Build 0)  -->
<svg version="1.1" id="Double_Cleanse" xmlns="http://www.w3.org/2000/svg" xmlns:xlink="http://www.w3.org/1999/xlink" x="0px"
	 y="0px" viewBox="0 0 230 500" style="enable-background:new 0 0 230 500;" xml:space="preserve">
<style type="text/css">
	.st0{fill:#9F3F95;}
</style>
<g>
	<path class="st0" d="M181.4,472.1H48.6c-18.5,0-33.6-15.1-33.6-33.6V61.4c0-18.5,15.1-33.6,33.6-33.6h132.9
		c18.5,0,33.6,15.1,33.6,33.6v377.2C215,457.1,199.9,472.1,181.4,472.1z M48.6,30.5c-17,0-30.9,13.8-30.9,30.9v377.2
		c0,17,13.8,30.9,30.9,30.9h132.9c17,0,30.9-13.9,30.9-30.9V61.4c0-17-13.8-30.9-30.9-30.9H48.6z"/>
	<g>
		<path class="st0" d="M93,218.9c0,8-6.5,14.5-14.5,14.5s-14.5-6.5-14.5-14.5s14.5-28.6,14.5-28.6S93,210.9,93,218.9z"/>
		<path class="st0" d="M78.5,234.7c-8.7,0-15.8-7.1-15.8-15.8c0-8.3,14.1-28.5,14.7-29.3l1.1-1.6l1.1,1.6c0.6,0.9,14.7,21,14.7,29.3
			C94.4,227.6,87.3,234.7,78.5,234.7z M78.5,192.7c-4.5,6.6-13.1,20.5-13.1,26.2c0,7.2,5.9,13.1,13.1,13.1s13.1-5.9,13.1-13.1
			C91.7,213.2,83,199.3,78.5,192.7z"/>
	</g>
	<g>
		<path class="st0" d="M90.5,166.2c0,6.6-5.4,12-12,12c-6.6,0-12-5.4-12-12c0-6.6,12-23.7,12-23.7S90.5,159.6,90.5,166.2z"/>
		<path class="st0" d="M78.5,179.5c-7.4,0-13.3-6-13.3-13.3c0-6.9,11-22.7,12.2-24.5l1.1-1.6l1.1,1.6c1.3,1.8,12.2,17.6,12.2,24.5
			C91.9,173.6,85.9,179.5,78.5,179.5z M78.5,144.9c-3.8,5.6-10.7,16.7-10.7,21.3c0,5.9,4.8,10.7,10.7,10.7c5.9,0,10.7-4.8,10.7-10.7
			C89.2,161.6,82.3,150.4,78.5,144.9z"/>
	</g>
	<g>
		<circle class="st0" cx="89.4" cy="402.1" r="39.6"/>
		<path class="st0" d="M89.4,443c-22.6,0-41-18.4-41-41s18.4-41,41-41s41,18.4,41,41S112,443,89.4,443z M89.4,363.8
			c-21.1,0-38.3,17.2-38.3,38.3c0,21.1,17.2,38.3,38.3,38.3s38.3-17.2,38.3-38.3C127.7,380.9,110.5,363.8,89.4,363.8z"/>
	</g>
	<g>
		<circle class="st0" cx="161.5" cy="381.2" r="18.8"/>
		<path class="st0" d="M161.5,401.3c-11.1,0-20.1-9-20.1-20.1c0-11.1,9-20.1,20.1-20.1c11.1,0,20.1,9,20.1,20.1
			C181.6,392.3,172.6,401.3,161.5,401.3z M161.5,363.8c-9.6,0-17.4,7.8-17.4,17.4c0,9.6,7.8,17.4,17.4,17.4
			c9.6,0,17.4-7.8,17.4-17.4C178.9,371.6,171.1,363.8,161.5,363.8z"/>
	</g>
	<g>
		<circle class="st0" cx="161.5" cy="428.7" r="13"/>
		<path class="st0" d="M161.5,443c-7.9,0-14.4-6.4-14.4-14.4c0-7.9,6.4-14.4,14.4-14.4c7.9,0,14.4,6.4,14.4,14.4
			C175.8,436.6,169.4,443,161.5,443z M161.5,417c-6.4,0-11.7,5.2-11.7,11.7c0,6.4,5.2,11.7,11.7,11.7c6.4,0,11.7-5.2,11.7-11.7
			C173.2,422.2,167.9,417,161.5,417z"/>
	</g>
	<path class="st0" d="M148.5,70.7c-8.9,0-13.4-4.3-17.7-8.4c-4.1-3.9-8-7.7-15.9-7.7c-7.8,0-11.7,3.7-15.8,7.7
		c-4.3,4.1-8.8,8.4-17.7,8.4c-8.9,0-13.4-4.3-17.7-8.4c-4.1-3.9-8-7.7-15.8-7.7v-2.7c8.9,0,13.4,4.3,17.7,8.4
		c4.1,3.9,8,7.7,15.8,7.7c7.8,0,11.7-3.7,15.8-7.7c4.3-4.1,8.8-8.4,17.7-8.4c8.9,0,13.4,4.3,17.7,8.4c4.1,3.9,8,7.7,15.9,7.7
		c7.9,0,11.7-3.7,15.9-7.7c4.3-4.1,8.8-8.4,17.7-8.4v2.7c-7.9,0-11.7,3.7-15.9,7.7C161.9,66.4,157.5,70.7,148.5,70.7z"/>
	<path class="st0" d="M148.5,95.6c-8.9,0-13.4-4.3-17.7-8.4c-4.1-3.9-8-7.7-15.9-7.7c-7.8,0-11.7,3.7-15.8,7.7
		c-4.3,4.1-8.8,8.4-17.7,8.4c-8.9,0-13.4-4.3-17.7-8.4c-4.1-3.9-8-7.7-15.8-7.7v-2.7c8.9,0,13.4,4.3,17.7,8.4
		c4.1,3.9,8,7.7,15.8,7.7c7.8,0,11.7-3.7,15.8-7.7c4.3-4.1,8.8-8.4,17.7-8.4c8.9,0,13.4,4.3,17.7,8.4c4.1,3.9,8,7.7,15.9,7.7
		c7.9,0,11.7-3.7,15.9-7.7c4.3-4.1,8.8-8.4,17.7-8.4v2.7c-7.9,0-11.7,3.7-15.9,7.7C161.9,91.3,157.5,95.6,148.5,95.6z"/>
	<path class="st0" d="M148.5,120.6c-8.9,0-13.4-4.3-17.7-8.4c-4.1-3.9-8-7.7-15.9-7.7c-7.8,0-11.7,3.7-15.8,7.7
		c-4.3,4.1-8.8,8.4-17.7,8.4c-8.9,0-13.4-4.3-17.7-8.4c-4.1-3.9-8-7.7-15.8-7.7v-2.7c8.9,0,13.4,4.3,17.7,8.4
		c4.1,3.9,8,7.7,15.8,7.7c7.8,0,11.7-3.7,15.8-7.7c4.3-4.1,8.8-8.4,17.7-8.4c8.9,0,13.4,4.3,17.7,8.4c4.1,3.9,8,7.7,15.9,7.7
		c7.9,0,11.7-3.7,15.9-7.7c4.3-4.1,8.8-8.4,17.7-8.4v2.7c-7.9,0-11.7,3.7-15.9,7.7C161.9,116.3,157.5,120.6,148.5,120.6z"/>
	<g>
		<path class="st0" d="M174.3,201.4c0,17.6-14.3,32-32,32s-32-14.3-32-32s32-63.1,32-63.1S174.3,183.7,174.3,201.4z"/>
		<path class="st0" d="M142.4,234.7c-18.4,0-33.3-14.9-33.3-33.3c0-17.9,30.9-62,32.2-63.9l1.1-1.6l1.1,1.6
			c1.3,1.9,32.2,46,32.2,63.9C175.6,219.7,160.7,234.7,142.4,234.7z M142.4,140.6c-5.6,8.2-30.6,45.6-30.6,60.8
			c0,16.9,13.7,30.6,30.6,30.6c16.9,0,30.6-13.7,30.6-30.6C173,186.2,147.9,148.8,142.4,140.6z"/>
	</g>
	<g>
		<path class="st0" d="M92.6,279.3c-10.3,0-19.1-6.6-22.4-15.8c-3.3,9.2-12.1,15.8-22.4,15.8c-0.7,0-1.3-0.6-1.3-1.3
			c0-0.7,0.6-1.3,1.3-1.3c11.6,0,21-9.4,21-21c0-0.7,0.6-1.3,1.3-1.3c0.7,0,1.3,0.6,1.3,1.3c0,11.6,9.4,21,21,21
			c0.7,0,1.3,0.6,1.3,1.3C94,278.7,93.4,279.3,92.6,279.3z"/>
		<path class="st0" d="M182.1,279.3c-10.3,0-19.1-6.6-22.4-15.8c-3.3,9.2-12.1,15.8-22.4,15.8c-0.7,0-1.3-0.6-1.3-1.3
			c0-0.7,0.6-1.3,1.3-1.3c11.6,0,21-9.4,21-21c0-0.7,0.6-1.3,1.3-1.3s1.3,0.6,1.3,1.3c0,11.6,9.4,21,21,21c0.7,0,1.3,0.6,1.3,1.3
			C183.5,278.7,182.9,279.3,182.1,279.3z"/>
		<path class="st0" d="M137.4,279.3c-10.3,0-19.1-6.6-22.4-15.8c-3.3,9.2-12.1,15.8-22.4,15.8c-0.7,0-1.3-0.6-1.3-1.3
			c0-0.7,0.6-1.3,1.3-1.3c11.6,0,21-9.4,21-21c0-0.7,0.6-1.3,1.3-1.3s1.3,0.6,1.3,1.3c0,11.6,9.4,21,21,21c0.7,0,1.3,0.6,1.3,1.3
			C138.7,278.7,138.1,279.3,137.4,279.3z"/>
	</g>
	<g>
		<path class="st0" d="M92.6,311.7c-10.3,0-19.1-6.6-22.4-15.8c-3.3,9.2-12.1,15.8-22.4,15.8c-0.7,0-1.3-0.6-1.3-1.3
			c0-0.7,0.6-1.3,1.3-1.3c11.6,0,21-9.4,21-21c0-0.7,0.6-1.3,1.3-1.3c0.7,0,1.3,0.6,1.3,1.3c0,11.6,9.4,21,21,21
			c0.7,0,1.3,0.6,1.3,1.3C94,311.1,93.4,311.7,92.6,311.7z"/>
		<path class="st0" d="M182.1,311.7c-10.3,0-19.1-6.6-22.4-15.8c-3.3,9.2-12.1,15.8-22.4,15.8c-0.7,0-1.3-0.6-1.3-1.3
			c0-0.7,0.6-1.3,1.3-1.3c11.6,0,21-9.4,21-21c0-0.7,0.6-1.3,1.3-1.3s1.3,0.6,1.3,1.3c0,11.6,9.4,21,21,21c0.7,0,1.3,0.6,1.3,1.3
			C183.5,311.1,182.9,311.7,182.1,311.7z"/>
		<path class="st0" d="M137.4,311.7c-10.3,0-19.1-6.6-22.4-15.8c-3.3,9.2-12.1,15.8-22.4,15.8c-0.7,0-1.3-0.6-1.3-1.3
			c0-0.7,0.6-1.3,1.3-1.3c11.6,0,21-9.4,21-21c0-0.7,0.6-1.3,1.3-1.3s1.3,0.6,1.3,1.3c0,11.6,9.4,21,21,21c0.7,0,1.3,0.6,1.3,1.3
			C138.7,311.1,138.1,311.7,137.4,311.7z"/>
	</g>
	<g>
		<path class="st0" d="M92.6,344.1c-10.3,0-19.1-6.6-22.4-15.8c-3.3,9.2-12.1,15.8-22.4,15.8c-0.7,0-1.3-0.6-1.3-1.3
			c0-0.7,0.6-1.3,1.3-1.3c11.6,0,21-9.4,21-21c0-0.7,0.6-1.3,1.3-1.3c0.7,0,1.3,0.6,1.3,1.3c0,11.6,9.4,21,21,21
			c0.7,0,1.3,0.6,1.3,1.3C94,343.5,93.4,344.1,92.6,344.1z"/>
		<path class="st0" d="M182.1,344.1c-10.3,0-19.1-6.6-22.4-15.8c-3.3,9.2-12.1,15.8-22.4,15.8c-0.7,0-1.3-0.6-1.3-1.3
			c0-0.7,0.6-1.3,1.3-1.3c11.6,0,21-9.4,21-21c0-0.7,0.6-1.3,1.3-1.3s1.3,0.6,1.3,1.3c0,11.6,9.4,21,21,21c0.7,0,1.3,0.6,1.3,1.3
			C183.5,343.5,182.9,344.1,182.1,344.1z"/>
		<path class="st0" d="M137.4,344.1c-10.3,0-19.1-6.6-22.4-15.8c-3.3,9.2-12.1,15.8-22.4,15.8c-0.7,0-1.3-0.6-1.3-1.3
			c0-0.7,0.6-1.3,1.3-1.3c11.6,0,21-9.4,21-21c0-0.7,0.6-1.3,1.3-1.3s1.3,0.6,1.3,1.3c0,11.6,9.4,21,21,21c0.7,0,1.3,0.6,1.3,1.3
			C138.7,343.5,138.1,344.1,137.4,344.1z"/>
	</g>
</g>
</svg>
