<svg xmlns="http://www.w3.org/2000/svg" viewBox="0 0 120 136.913">
  <defs>
    <style>
      .cls-1 {
        fill: #9f3f95;
      }
    </style>
  </defs>
  <g id="Oil_Wash_Icon" data-name="Oil Wash Icon" transform="translate(0 0)">
    <path id="Path_200" data-name="Path 200" class="cls-1" d="M99.866,0H20.134A20.142,20.142,0,0,0,0,20.134v96.644a20.142,20.142,0,0,0,20.134,20.134H99.866A20.142,20.142,0,0,0,120,116.779V20.134A20.142,20.142,0,0,0,99.866,0Zm18.523,116.779A18.526,18.526,0,0,1,99.866,135.3H20.134A18.526,18.526,0,0,1,1.611,116.779V20.134A18.63,18.63,0,0,1,20.134,1.611H99.866a18.63,18.63,0,0,1,18.523,18.523Z"/>
    <path id="Path_201" data-name="Path 201" class="cls-1" d="M27.3,61l-.644.966C26.337,62.45,17.8,74.53,17.8,79.523a9.5,9.5,0,1,0,19.007,0c0-4.993-8.537-17.074-8.859-17.557Z" transform="translate(10.871 37.255)"/>
    <path id="Path_202" data-name="Path 202" class="cls-1" d="M34.707,58.824c0-4.188-6.6-13.53-7.409-14.658l-.644-.966-.644.966C25.2,45.294,18.6,54.8,18.6,58.824a8.077,8.077,0,0,0,8.054,8.054A7.975,7.975,0,0,0,34.707,58.824Z" transform="translate(11.36 26.384)"/>
    <path id="Path_203" data-name="Path 203" class="cls-1" d="M72.6,19.964c-4.671,0-7.087-2.255-9.5-4.671C60.522,12.877,57.784,10.3,52.468,10.3s-8.054,2.577-10.631,4.993c-2.416,2.416-4.832,4.671-9.5,4.671s-7.087-2.255-9.5-4.671C20.254,12.877,17.515,10.3,12.2,10.3v1.611c4.671,0,7.087,2.255,9.5,4.671,2.577,2.416,5.315,4.993,10.631,4.993S40.388,19,42.965,16.582c2.416-2.416,4.832-4.671,9.5-4.671s7.087,2.255,9.5,4.671C64.549,19,67.287,21.575,72.6,21.575S80.656,19,83.234,16.582c2.416-2.416,4.832-4.671,9.5-4.671V10.3c-5.315,0-8.054,2.577-10.631,4.993C79.69,17.709,77.435,19.964,72.6,19.964Z" transform="translate(7.451 6.291)"/>
    <path id="Path_204" data-name="Path 204" class="cls-1" d="M72.6,29.264c-4.671,0-7.087-2.255-9.5-4.671C60.522,22.177,57.784,19.6,52.468,19.6s-8.054,2.577-10.631,4.993c-2.416,2.416-4.832,4.671-9.5,4.671s-7.087-2.255-9.5-4.671C20.254,22.177,17.515,19.6,12.2,19.6v1.611c4.671,0,7.087,2.255,9.5,4.671,2.577,2.416,5.315,4.993,10.631,4.993s8.054-2.577,10.631-4.993c2.416-2.416,4.832-4.671,9.5-4.671s7.087,2.255,9.5,4.671c2.577,2.416,5.315,4.993,10.631,4.993s8.054-2.577,10.631-4.993c2.416-2.416,4.832-4.671,9.5-4.671V19.6c-5.315,0-8.054,2.577-10.631,4.993C79.69,27.17,77.435,29.264,72.6,29.264Z" transform="translate(7.451 11.97)"/>
    <path id="Path_205" data-name="Path 205" class="cls-1" d="M72.6,38.564c-4.671,0-7.087-2.255-9.5-4.671C60.522,31.477,57.784,28.9,52.468,28.9s-8.054,2.577-10.631,4.993c-2.416,2.416-4.832,4.671-9.5,4.671s-7.087-2.255-9.5-4.671C20.254,31.477,17.515,28.9,12.2,28.9v1.611c4.671,0,7.087,2.255,9.5,4.671,2.577,2.416,5.315,4.993,10.631,4.993s8.054-2.577,10.631-4.993c2.416-2.416,4.832-4.671,9.5-4.671s7.087,2.255,9.5,4.671c2.577,2.416,5.315,4.993,10.631,4.993s8.054-2.577,10.631-4.993c2.416-2.416,4.832-4.671,9.5-4.671V28.9c-5.315,0-8.054,2.577-10.631,4.993C79.69,36.47,77.435,38.564,72.6,38.564Z" transform="translate(7.451 17.65)"/>
    <path id="Path_206" data-name="Path 206" class="cls-1" d="M54.973,41.6l-.644.966C53.523,43.694,35,70.271,35,80.9a19.973,19.973,0,1,0,39.946,0c0-10.792-18.523-37.208-19.329-38.336Z" transform="translate(21.376 25.407)"/>
  </g>
</svg>
