<?xml version="1.0" encoding="utf-8"?>
<!-- Generator: Adobe Illustrator 22.1.0, SVG Export Plug-In . SVG Version: 6.00 Build 0)  -->
<svg version="1.1" id="Oil_Cleanse" xmlns="http://www.w3.org/2000/svg" xmlns:xlink="http://www.w3.org/1999/xlink" x="0px"
	 y="0px" viewBox="0 0 230 258" style="enable-background:new 0 0 230 258;" xml:space="preserve">
<style type="text/css">
	.st0{fill:#9F3F95;}
</style>
<g>
	<path class="st0" d="M181.3,15H48.6C30.1,15,15,29.9,15,48.4v161C15,228,30.1,243,48.6,243h132.8c18.5,0,33.6-15.1,33.6-33.6v-161
		C214.9,29.9,199.8,15,181.3,15z M212.2,209.6c0,17-13.9,30.9-30.9,30.9H48.6c-17,0-30.9-13.9-30.9-30.9V48.4
		c0-17,13.8-30.9,30.9-30.9h132.8c17,0,30.9,13.8,30.9,30.9L212.2,209.6L212.2,209.6z"/>
	<path class="st0" d="M78.5,178.7l-1.1,1.6c-0.6,0.9-14.7,21-14.7,29.3c0,8.7,7.1,15.8,15.8,15.8s15.8-7.1,15.8-15.8
		c0-8.3-14.1-28.5-14.7-29.3L78.5,178.7z"/>
	<path class="st0" d="M91.9,157c0-6.8-11-22.7-12.2-24.5l-1.1-1.6l-1.1,1.6c-1.3,1.8-12.2,17.6-12.2,24.5c0,7.4,6,13.3,13.3,13.3
		S91.9,164.3,91.9,157z"/>
	<path class="st0" d="M148.4,58.7c-7.9,0-11.7-3.7-15.9-7.7c-4.3-4.1-8.8-8.4-17.7-8.4s-13.4,4.3-17.7,8.4c-4.1,3.9-8,7.7-15.8,7.7
		S69.7,55,65.6,51c-4.3-4.1-8.8-8.4-17.7-8.4v2.7c7.8,0,11.7,3.7,15.8,7.7c4.3,4.1,8.8,8.4,17.7,8.4s13.4-4.3,17.7-8.4
		c4.1-3.9,8-7.7,15.8-7.7c7.9,0,11.7,3.7,15.9,7.7c4.3,4.1,8.8,8.4,17.7,8.4c8.9,0,13.4-4.3,17.7-8.4c4.1-3.9,8-7.7,15.9-7.7v-2.7
		c-8.9,0-13.4,4.3-17.7,8.4C160.2,55,156.3,58.7,148.4,58.7z"/>
	<path class="st0" d="M148.4,83.7c-7.9,0-11.7-3.7-15.9-7.7c-4.3-4.1-8.8-8.4-17.7-8.4s-13.4,4.3-17.7,8.4c-4.1,3.9-8,7.7-15.8,7.7
		S69.7,80,65.6,76c-4.3-4.1-8.8-8.4-17.7-8.4v2.7c7.8,0,11.7,3.7,15.8,7.7c4.3,4.1,8.8,8.4,17.7,8.4s13.4-4.3,17.7-8.4
		c4.1-3.9,8-7.7,15.8-7.7c7.9,0,11.7,3.7,15.9,7.7c4.3,4.1,8.8,8.4,17.7,8.4c8.9,0,13.4-4.3,17.7-8.4c4.1-3.9,8-7.7,15.9-7.7v-2.7
		c-8.9,0-13.4,4.3-17.7,8.4C160.2,80,156.3,83.7,148.4,83.7z"/>
	<path class="st0" d="M148.4,108.7c-7.9,0-11.7-3.7-15.9-7.7c-4.3-4.1-8.8-8.4-17.7-8.4s-13.4,4.3-17.7,8.4c-4.1,3.9-8,7.7-15.8,7.7
		S69.7,105,65.6,101c-4.3-4.1-8.8-8.4-17.7-8.4v2.7c7.8,0,11.7,3.7,15.8,7.7c4.3,4.1,8.8,8.4,17.7,8.4s13.4-4.3,17.7-8.4
		c4.1-3.9,8-7.7,15.8-7.7c7.9,0,11.7,3.7,15.9,7.7c4.3,4.1,8.8,8.4,17.7,8.4c8.9,0,13.4-4.3,17.7-8.4c4.1-3.9,8-7.7,15.9-7.7v-2.7
		c-8.9,0-13.4,4.3-17.7,8.4C160.2,105,156.3,108.7,148.4,108.7z"/>
	<path class="st0" d="M142.3,126.7l-1.1,1.6c-1.3,1.9-32.2,46-32.2,63.9c0,18.4,14.9,33.3,33.3,33.3s33.3-14.9,33.3-33.3
		c0-17.9-30.9-62-32.2-63.9L142.3,126.7z"/>
</g>
</svg>
